<svg xmlns="http://www.w3.org/2000/svg" width="200.828" height="60" viewBox="0 0 200.828 60">
  <g id="logo" transform="translate(-578.768 -645.047)">
    <path id="Trazado_2380" data-name="Trazado 2380" d="M625.108,681.54l-17.133,40.6H595.825l-17.057-40.6h12.151l11.245,27.622,11.623-27.622Z" transform="translate(0 -17.7)" fill="#fff"/>
    <path id="Trazado_2381" data-name="Trazado 2381" d="M677.385,656.292a6.391,6.391,0,0,1,0-9.359,7.471,7.471,0,0,1,5.283-1.887,7.656,7.656,0,0,1,5.283,1.812,5.806,5.806,0,0,1,2.038,4.528,6.407,6.407,0,0,1-2.038,4.868,7.383,7.383,0,0,1-5.283,1.924A7.464,7.464,0,0,1,677.385,656.292Zm-.6,7.547h11.774v40.6H676.781Z" transform="translate(-46.844)" fill="#fcbc1d"/>
    <path id="Trazado_2382" data-name="Trazado 2382" d="M743.884,711.722a12.077,12.077,0,0,1-4.264,1.924,21.6,21.6,0,0,1-5.321.642q-7.245,0-11.207-3.7t-3.962-10.868V683.043h-6.264v-9.057h6.264V664.1H730.9v9.886h10.113v9.057H730.9v16.528a5.539,5.539,0,0,0,1.32,3.962,4.89,4.89,0,0,0,3.736,1.4,7.564,7.564,0,0,0,4.754-1.509Z" transform="translate(-65.041 -9.241)" fill="#fff"/>
    <path id="Trazado_2383" data-name="Trazado 2383" d="M802.938,681.876a21.153,21.153,0,0,1,8.264-1.509v10.868q-1.964-.15-2.641-.151-5.057,0-7.924,2.83t-2.868,8.49v19.17H785.995v-40.6H797.24v5.358A13.094,13.094,0,0,1,802.938,681.876Z" transform="translate(-100.512 -17.131)" fill="#fff"/>
    <path id="Trazado_2384" data-name="Trazado 2384" d="M847.828,656.292a6.391,6.391,0,0,1,0-9.359,7.471,7.471,0,0,1,5.283-1.887,7.656,7.656,0,0,1,5.283,1.812,5.808,5.808,0,0,1,2.038,4.528,6.409,6.409,0,0,1-2.038,4.868,7.383,7.383,0,0,1-5.283,1.924A7.464,7.464,0,0,1,847.828,656.292Zm-.6,7.547H859v40.6H847.224Z" transform="translate(-129.514)" fill="#fcbc1d"/>
    <path id="Trazado_2385" data-name="Trazado 2385" d="M913.664,722.143l-8.9-12.452-9.208,12.452h-12.83l15.623-20.453L883.249,681.54h13.208l8.6,11.849,8.83-11.849h12.528l-15.094,19.849,15.7,20.754Z" transform="translate(-147.427 -17.7)" fill="#fff"/>
  </g>
</svg>
