<svg id="Capa_1" data-name="Capa 1" xmlns="http://www.w3.org/2000/svg" viewBox="0 0 60 60"><defs><style>.cls-1{fill:#ffc700;}</style></defs><path class="cls-1" d="M47,22.67V51.92a4.22,4.22,0,0,1-.07.79,1.07,1.07,0,0,1-.94.94,4,4,0,0,1-.69.07H16.41a4,4,0,0,1-.69-.06,1.11,1.11,0,0,1-1-1,4.14,4.14,0,0,1-.06-.79q0-14.26,0-28.54V22.6l-3.52,1c-.4.12-.81.26-1.22.37a1.3,1.3,0,0,1-1.82-.78c-.84-1.64-1.67-3.29-2.5-4.93C5,17.12,4.43,16,3.84,14.78a1.3,1.3,0,0,1,.72-2c3.31-1.54,6.58-3.17,10-4.55a53,53,0,0,1,6.13-1.74,3.78,3.78,0,0,1,.46-.1c1.06-.21,1.55.09,1.85,1.14a8.16,8.16,0,0,0,15.79,0c.3-1.08.8-1.42,1.88-1.15,2.05.51,4.12,1,6.1,1.64,1.8.63,3.5,1.55,5.24,2.35l5.11,2.36c1.06.49,1.27,1.09.75,2.13l-4.2,8.3a1.35,1.35,0,0,1-1.94.83l-4.49-1.32A.62.62,0,0,0,47,22.67Z"/><path class="cls-1" d="M25.77,7.16a22.32,22.32,0,0,0,10.12,0,5.19,5.19,0,0,1-4.79,3.66A5.29,5.29,0,0,1,25.77,7.16Z"/></svg>