<svg id="Capa_1" data-name="Capa 1" xmlns="http://www.w3.org/2000/svg" viewBox="0 0 60 60"><defs><style>.cls-1{fill:#f6f6f6;}</style></defs><path class="cls-1" d="M22.63,35h0l.55-.74c.35-2.78-3.74-4.83-5.75-5.67a19,19,0,0,1-9.67,3.74v0a22.35,22.35,0,0,0,.91,6.32C14.61,33.42,22.63,35,22.63,35Z"/><path class="cls-1" d="M41.07,18.45c2.85-.51,4.08-1.54,4.51-2a22.05,22.05,0,0,0-3.08-2.53,18.9,18.9,0,0,0-1.33,3.28A10.05,10.05,0,0,1,41.07,18.45Z"/><path class="cls-1" d="M20.29,25.39a10.77,10.77,0,0,1,4.46,4.66,10.25,10.25,0,0,1,.61-9.65c2.26-4.42-.72-8.28-1.74-9.41a22.2,22.2,0,0,0-4.17,1.73c1,1.7,3.87,7.55,1.07,12.25C20.52,25,20.45,25.12,20.29,25.39Z"/><path class="cls-1" d="M10.88,20.93a22.11,22.11,0,0,0-3,8.88,10.39,10.39,0,0,0,7.65-2.19A11.61,11.61,0,0,1,10.88,20.93Z"/><path class="cls-1" d="M9.49,40.94a22.67,22.67,0,0,0,2.59,4.55,7.09,7.09,0,0,0,.56-7.44A16.73,16.73,0,0,0,9.49,40.94Z"/><path class="cls-1" d="M50.41,41.16a16.7,16.7,0,0,0-3.08-2.93A7,7,0,0,0,48,45.44,22.12,22.12,0,0,0,50.41,41.16Z"/><path class="cls-1" d="M44,30.14c1.28,1,3.72,2.11,7.29.44l-.51,2.56s-5.36,1.47-8.54-2a17.58,17.58,0,0,1-3.37,1.32,3.7,3.7,0,0,1-.28,2.29c2.64-.17,8.27,0,12.67,4a22.32,22.32,0,0,0-1.78-17.24A11.37,11.37,0,0,1,44,30.14Z"/><path class="cls-1" d="M46.43,37.63a10.9,10.9,0,0,0-7.65-1.5c2.72,4,5.14,13.2,5.14,13.2s-.07.28-.11.42a22.92,22.92,0,0,0,3.4-3.35C47,45.93,44.67,41.72,46.43,37.63Z"/><path class="cls-1" d="M12.82,46.43l-.74-.94C12.32,45.81,12.56,46.13,12.82,46.43Z"/><path class="cls-1" d="M18,24.47h0a14.21,14.21,0,0,0,.81-1.92s1.25-4.8-1.2-8.74A22.33,22.33,0,0,0,12.93,18,10.92,10.92,0,0,0,18,24.47Z"/><path class="cls-1" d="M21.71,36.28h0a10.9,10.9,0,0,0-8.15,1.19c2,4.39-.74,9-.74,9a22.11,22.11,0,0,0,2.62,2.68A47.61,47.61,0,0,1,21.71,36.28Z"/><path class="cls-1" d="M27.48,11.92A9.18,9.18,0,0,1,29,17.77c.9-.47,3.23-2.16,4.29-7.46A22.52,22.52,0,0,0,30,10.06a22.82,22.82,0,0,0-3.53.28A4.23,4.23,0,0,0,27.48,11.92Z"/><path class="cls-1" d="M27.89,22.27l0-.17,0,.08c-.74,5.61,3.21,7.67,3.21,7.67a5.26,5.26,0,0,1,2.41-4.92c2.57-1.44,2.92-3.21,2.92-3.21.09-4.79,1.93-7.67,3.57-9.29a22.52,22.52,0,0,0-3.41-1.38C35.38,14,32.53,19.87,27.89,22.27Z"/><path class="cls-1" d="M47.55,18.64c-.2-.25-.4-.51-.61-.75-1.26,1.61-4.54,2.5-6.46,2.9a9.11,9.11,0,0,1-2.69,3.85c-3.26,3.95-1.66,6.24-1.66,6.24.52-2.46,4.58-4.41,4.58-4.41A11.58,11.58,0,0,0,47.55,18.64Z"/></svg>