<svg id="Capa_1" data-name="Capa 1" xmlns="http://www.w3.org/2000/svg" viewBox="0 0 60 60"><defs><style>.cls-1{fill:#f6f6f6;}</style></defs><path class="cls-1" d="M28.74,52.87A11.4,11.4,0,1,1,40.17,41.54,11.43,11.43,0,0,1,28.74,52.87ZM27.47,32.2c0,.48,0,.94,0,1.4a.66.66,0,0,1-.48.77,4.37,4.37,0,0,0-1.47,7,4.44,4.44,0,0,0,3.29,1.44A1.79,1.79,0,1,1,27,44.9a2.29,2.29,0,0,0-.08-.28H24.36a4.5,4.5,0,0,0,3.12,4.2v1.93h2.6V48.81l.42-.18a4.41,4.41,0,0,0-1.71-8.46,1.79,1.79,0,1,1,1.75-2.09c0,.1.06.19.09.3h2.51a4.27,4.27,0,0,0-2.69-4.06.5.5,0,0,1-.38-.57c0-.51,0-1,0-1.55Z"/><path class="cls-1" d="M51,37.11l-.4,0H42.5a.49.49,0,0,1-.56-.39,13.9,13.9,0,0,0-2.31-4.11,1.14,1.14,0,0,1-.25-.65q0-11.64,0-23.28V8.34H46V34.51h5Z"/><path class="cls-1" d="M36.73,30a14.2,14.2,0,0,0-6.62-2.42V14.09h6.62Z"/><path class="cls-1" d="M6.51,37.1V34.54h5V25.65h6.66c0,.14,0,.28,0,.42,0,2,0,3.92,0,5.88a1.15,1.15,0,0,1-.23.66,14.37,14.37,0,0,0-2.35,4.18c-.08.2-.14.35-.41.35H6.69Z"/><path class="cls-1" d="M20.83,19.87h6.62v7.67A14.06,14.06,0,0,0,20.83,30Z"/></svg>