<?xml version="1.0" encoding="utf-8"?>
<!-- Generator: Adobe Illustrator 26.1.0, SVG Export Plug-In . SVG Version: 6.00 Build 0)  -->
<svg version="1.1" id="Capa_1" xmlns="http://www.w3.org/2000/svg" xmlns:xlink="http://www.w3.org/1999/xlink" x="0px" y="0px"
	 viewBox="0 0 60 60" style="enable-background:new 0 0 60 60;" xml:space="preserve">
<style type="text/css">
	.st0{fill:#F6F6F6;}
</style>
<path class="st0" d="M30,50c-5.2,0-10.4,0-15.6,0c-2.4,0-4.3-1.4-4.8-3.6c-0.1-0.4-0.2-0.9-0.2-1.3c0-9.1,0-18.2,0-27.4c0-3,2-5,5-5
	c2.2,0,4.4,0,6.6,0c1.4,0,2.4,0.6,3.2,1.7c0.7,1.1,1.5,2.1,2.3,3.1c0.1,0.2,0.5,0.3,0.7,0.4c0.3,0.1,0.7,0,1,0c5.8,0,11.6,0,17.4,0
	c2.4,0,4.3,1.4,4.8,3.7c0.1,0.4,0.1,0.9,0.1,1.3c0,7.3,0,14.7,0,22c0,3-2,5-5,5C40.4,50,35.2,50,30,50z M31.7,30.2
	c0,0,0.1,0,0.1-0.1c0.3,0.3,0.6,0.7,0.9,1c0.4,0.4,0.9,0.6,1.4,0.5c0.7-0.1,1.2-0.5,1.4-1.2c0.2-0.7,0.1-1.3-0.4-1.8
	c-1.3-1.3-2.6-2.5-3.8-3.8c-0.8-0.8-1.7-0.8-2.6,0c-1.3,1.3-2.5,2.5-3.8,3.8c-0.8,0.8-0.8,1.8-0.1,2.5c0.7,0.7,1.7,0.7,2.5-0.1
	c0.3-0.3,0.6-0.6,0.8-0.9c0,0,0.1,0.1,0.1,0.1c0,0.2,0,0.3,0,0.5c0,1.5,0,3,0,4.5c0,0.9,0.7,1.6,1.5,1.6c0.8,0.1,1.6-0.5,1.8-1.3
	c0.1-0.2,0-0.5,0-0.7C31.7,33.3,31.7,31.7,31.7,30.2z M30,43.7c1.9,0,3.8,0,5.7,0c0.2,0,0.5,0,0.7-0.1c0.8-0.2,1.3-1,1.2-1.9
	c-0.1-0.9-0.8-1.5-1.8-1.5c-3.8,0-7.6,0-11.4,0c-1.1,0-1.9,0.7-1.9,1.7c0,1,0.8,1.7,1.9,1.7C26.2,43.7,28.1,43.7,30,43.7z"/>
</svg>
