<svg xmlns="http://www.w3.org/2000/svg" width="114.198" height="100" viewBox="0 0 114.198 100">
  <g id="Casa" transform="translate(-2855.227 -499.643)">
    <path id="Trazado_48558" data-name="Trazado 48558" d="M2885.471,542.752a17.066,17.066,0,0,1-6.153,5.157,16.505,16.505,0,0,1-22.26-7.9,16,16,0,0,1-1.27-11.556c2.061-7.6,3.869-15.261,5.788-22.9a7.192,7.192,0,0,1,7.563-5.912q43.133-.005,86.264,0c3.984,0,6.583,2.043,7.556,5.918,2.064,8.211,4.172,16.411,6.158,24.641.852,3.532-.176,6.869-1.742,10.01a16.567,16.567,0,0,1-18.5,8.992,16.056,16.056,0,0,1-8.842-5.282c-.295-.332-.574-.679-.965-1.141-3.462,4.323-7.859,6.846-13.419,6.836-5.523-.012-9.914-2.471-13.374-6.846-3.481,4.363-7.865,6.844-13.39,6.844S2888.965,547.158,2885.471,542.752Z" fill="#fff"/>
    <path id="Trazado_48559" data-name="Trazado 48559" d="M2923.554,576.949v-28.48h-28.548v28.48h-1.2q-13.337,0-26.671,0c-4.909,0-7.869-2.944-7.87-7.828q-.008-18.022,0-36.043v-1.122c1.155.4,2.209.815,3.293,1.129a22.712,22.712,0,0,0,19.039-2.653,1.458,1.458,0,0,1,1.776,0q12.476,7.141,24.986.01a1.5,1.5,0,0,1,1.778-.03q12.525,7.193,25.078-.012a1.313,1.313,0,0,1,1.59-.061,22.811,22.811,0,0,0,21.436,1.949c.3-.119.616-.215,1.028-.358v1.206q0,17.967,0,35.933c0,4.911-2.94,7.872-7.821,7.875q-13.337.008-26.673,0Z" transform="translate(3.004 22.693)" fill="#fff"/>
  </g>
</svg>
