<svg id="Capa_1" data-name="Capa 1" xmlns="http://www.w3.org/2000/svg" viewBox="0 0 37.81 47.24"><defs><style>.cls-1{fill:#ffc700;}</style></defs><path class="cls-1" d="M22.4,11.63a7.92,7.92,0,0,1,8-7.09,8,8,0,0,1,7.72,7.09c.61,0,1.24,0,1.86,0a4.49,4.49,0,0,1,4.78,4.16Q46.35,27,47.87,38.25c.41,3,.83,6,1.24,9a4.11,4.11,0,0,1-4,4.56H15.83a4.68,4.68,0,0,1-2.93-1,3.7,3.7,0,0,1-1.51-3.71q.93-6.72,1.84-13.44,1-7,1.93-14c.18-1.28.32-2.57.53-3.85a4.53,4.53,0,0,1,3.22-4,5.16,5.16,0,0,1,1.31-.15C20.93,11.61,21.65,11.63,22.4,11.63Zm1.66,0H36.48a6.21,6.21,0,0,0-6.56-5.48C26.9,6.26,24,9,24.06,11.61Zm6.22,15.64c.61-.09,1.23-.14,1.84-.28a7.8,7.8,0,0,0,6-7.5c0-.54-.27-.84-.74-.86a.77.77,0,0,0-.82.79c0,.28,0,.56,0,.84a6.33,6.33,0,0,1-12.44.41c-.09-.43-.09-.87-.14-1.31a.78.78,0,0,0-1.55,0,3.42,3.42,0,0,0,0,.64A8,8,0,0,0,30.28,27.25Z" transform="translate(-11.34 -4.54)"/></svg>