<svg xmlns="http://www.w3.org/2000/svg" width="97.233" height="100" viewBox="0 0 97.233 100">
  <g id="Visita_extraordinaria_fisica" data-name="Visita extraordinaria fisica" transform="translate(-11062.686 -1595.056)">
    <path id="Trazado_1792" data-name="Trazado 1792" d="M11129.094,1630.471c0,2.263.02,4.5-.014,6.743a5.383,5.383,0,0,1-.291,1.9,2.788,2.788,0,0,1-4.145,1.3,39.98,39.98,0,0,1-3.43-2.72c-2.553-2.116-5.105-4.235-7.629-6.385a2.626,2.626,0,0,0-1.848-.652c-6.275,0-12.555.1-18.824-.077a17.529,17.529,0,0,1-16.277-13.138,17.76,17.76,0,0,1,14.045-22.076,19.379,19.379,0,0,1,3.393-.292q15.9-.032,31.8-.007a17.794,17.794,0,0,1,4.215,35.138C11129.777,1630.275,11129.471,1630.371,11129.094,1630.471Z" transform="translate(5.656 0)" fill="#f6f6f6"/>
    <path id="Trazado_1793" data-name="Trazado 1793" d="M11112.6,1654.832a13.49,13.49,0,1,1,19.182,0c.395.2.754.381,1.113.568a22.447,22.447,0,0,1,9.885,9.526,9.87,9.87,0,0,1-8.482,14.428q-12.091.224-24.187,0a9.918,9.918,0,0,1-8.1-15.193,23.756,23.756,0,0,1,9.818-8.931C11112.057,1655.121,11112.281,1655,11112.6,1654.832Z" transform="translate(16.013 15.576)" fill="#f6f6f6"/>
    <path id="Trazado_1794" data-name="Trazado 1794" d="M11088.983,1656.478c1.717,1.371,3.482,2.6,5.027,4.06a11.844,11.844,0,0,1,3.615,5.792,8.331,8.331,0,0,1-7.633,10.3c-6.5.162-13.008.2-19.5-.01-6.3-.206-9.859-7.383-6.543-12.824a18.6,18.6,0,0,1,6.539-6.421c.387-.226.766-.46,1.225-.736a11.33,11.33,0,0,1-2.295-9.839,10.816,10.816,0,0,1,4.215-6.359,11.179,11.179,0,0,1,14.25.813A11.37,11.37,0,0,1,11088.983,1656.478Z" transform="translate(0.001 18.293)" fill="#f6f6f6"/>
    <path id="Trazado_1795" data-name="Trazado 1795" d="M11074.611,1611.522a60.212,60.212,0,0,0,3,6.5,22.949,22.949,0,0,0,19.586,11.587c5.031.206,10.078.048,15.117.054h1.188a12.927,12.927,0,0,1-5.088,5.478,13.888,13.888,0,0,1-7.367,1.854c-3.738,0-7.477-.023-11.215.024a2.721,2.721,0,0,0-1.557.568c-2.205,1.768-4.363,3.6-6.529,5.415a3.074,3.074,0,0,1-5.332-2.478c0-1.007-.051-2.019.018-3.021.049-.7-.24-.958-.857-1.15a13.049,13.049,0,0,1-8.441-7.773C11064.352,1622.051,11068.012,1613.781,11074.611,1611.522Z" transform="translate(1.488 6.973)" fill="#f6f6f6"/>
  </g>
</svg>
