<?xml version="1.0" encoding="UTF-8"?><svg id="Capa_1" xmlns="http://www.w3.org/2000/svg" viewBox="0 0 97 100"><defs><style>.cls-1{fill:#fff;}</style></defs><path class="cls-1" d="M21.53,20.96c.91,.75,1.39,1.58,1.28,2.67-.16,1.26-1.21,2.28-2.53,2.31-1.85,.05-3.7,.05-5.55,0-1.37-.02-2.47-1.14-2.51-2.51-.05-1.85-.05-3.7,0-5.55,.02-1.21,.89-2.19,2.08-2.47,1.12-.25,2.28,.27,2.88,1.32,.11,.18,.21,.39,.23,.43,1.83-.98,3.54-2.1,5.41-2.88,12.42-5.18,26.69,2.79,28.86,16.05,1.94,11.83-5.98,22.72-17.88,24.57-11.17,1.71-22.13-6.21-23.91-17.35-.18-1.12-.27-2.24-.32-3.38-.07-1.69,1.05-2.9,2.6-2.92,1.53,0,2.65,1.16,2.69,2.83,.16,7.1,4.77,13.15,11.46,15.07,8.86,2.53,17.92-2.81,19.98-11.78,2.03-8.84-3.93-17.7-12.95-19.16-4.25-.69-8.15,.27-11.83,2.74Z"/><path class="cls-1" d="M78.52,39.2h-21.01c-2.06,0-3.38-1.76-2.69-3.54,.39-1.03,1.14-1.6,2.21-1.74,.18-.02,.39,0,.57,0h23.2c1.92,0,2.99,1.05,2.99,2.95v41.83c0,1.44-.66,2.42-1.87,2.81-1.07,.34-2.31,0-2.92-.98-.32-.5-.5-1.19-.5-1.78-.05-2.6,0-5.18,0-7.79v-31.72l.05-.05h-.02Z"/><path class="cls-1" d="M70.55,47.15h-15.78c-1.6,0-2.79-1.16-2.79-2.65s1.19-2.63,2.81-2.65h18.22c1.74,0,2.83,1.1,2.83,2.85v39.34c0,1.67-1.14,2.88-2.67,2.85-1.53,0-2.63-1.21-2.63-2.9V47.15Z"/><path class="cls-1" d="M28.13,72.33v-11.92c0-1.42,1-2.51,2.35-2.65,1.3-.14,2.51,.69,2.85,1.99,.07,.23,.09,.48,.09,.73v23.66c0,1.46-.98,2.58-2.35,2.74-1.32,.16-2.6-.75-2.88-2.08-.07-.32-.07-.66-.07-.98v-11.51h0v.02Z"/><path class="cls-1" d="M51.99,68.36h-10.28c-1.76,0-2.97-1.1-2.97-2.65s1.19-2.65,2.95-2.65h20.64c1.74,0,2.95,1.12,2.92,2.69,0,1.53-1.21,2.6-2.92,2.63h-10.34v-.02Z"/><path class="cls-1" d="M52.01,78.95h-10.6c-1.39,0-2.51-1.03-2.67-2.35-.14-1.3,.69-2.51,1.99-2.85,.21-.05,.43-.09,.66-.09h21.19c1.39,0,2.51,1.03,2.67,2.35,.16,1.32-.73,2.58-2.08,2.88-.32,.07-.66,.07-.98,.07-3.4,0-6.78,0-10.18,0Z"/><path class="cls-1" d="M54.68,52.44h7.63c1.76,0,2.95,1.1,2.95,2.67s-1.21,2.63-2.97,2.63h-15.25c-1.76,0-2.97-1.07-2.99-2.63,0-1.6,1.19-2.67,3.01-2.67h7.63Z"/><path class="cls-1" d="M28.13,31.25v-5.09c0-1.67,1.12-2.85,2.67-2.85s2.63,1.19,2.63,2.81v7.63c0,1.71-1.1,2.81-2.79,2.81h-7.7c-1.6,0-2.79-1.19-2.76-2.69,0-1.48,1.19-2.6,2.74-2.6,0,0,5.21,0,5.21,0Z"/></svg>