<svg xmlns="http://www.w3.org/2000/svg" width="97.311" height="100" viewBox="0 0 97.311 100">
  <g id="Pilares_de_visita" data-name="Pilares de  visita" transform="translate(-11361.867 -1360.891)">
    <path id="Trazado_1782" data-name="Trazado 1782" d="M11361.867,1365.456h1.1q30.935,0,61.871-.021c.955,0,1.26.19,1.258,1.218q-.047,42.564-.025,85.129v1.135h-64.207Zm5.887,5.929v75.663h52.336v-75.663Z" transform="translate(0 2.325)" fill="#f6f6f6"/>
    <path id="Trazado_1783" data-name="Trazado 1783" d="M11435.566,1403.335h-5.8v-22.362c0-2.372-.7-3.058-3.1-3.057h-1.2v1.3q0,30.054-.018,60.109a5.457,5.457,0,0,1-.41,2.065c-2.615,6.168-5.273,12.32-7.92,18.476-.127.293-.26.583-.461,1.03-.168-.323-.285-.523-.379-.735q-4.084-9.5-8.152-19.011a3.682,3.682,0,0,1-.279-1.412q-.021-34.845-.008-69.687a8.79,8.79,0,0,1,6.936-8.955,8.676,8.676,0,0,1,9.83,4.942,15.835,15.835,0,0,1,.84,3.775,13.813,13.813,0,0,1,.02,2.15c1.244.086,2.416.075,3.555.261a7.874,7.874,0,0,1,6.592,7.542c.076,7.72.027,15.442.027,23.162A2.479,2.479,0,0,1,11435.566,1403.335Zm-18.928,42.739c.922-2.15,1.783-4.1,2.592-6.079a4.3,4.3,0,0,0,.344-1.589q.026-29.7.014-59.4v-1.032h-5.871v1.011q0,29.75,0,59.5a2.58,2.58,0,0,0,.082.964C11414.7,1441.6,11415.629,1443.73,11416.639,1446.073Zm3.018-74.08a20.974,20.974,0,0,0-.312-3.318,2.8,2.8,0,0,0-2.959-1.9,2.9,2.9,0,0,0-2.609,2.38,27.417,27.417,0,0,0-.018,2.839Z" transform="translate(23.523 0)" fill="#f6f6f6"/>
    <path id="Trazado_1784" data-name="Trazado 1784" d="M11378.676,1391.278v-5.773h25.066v5.773Z" transform="translate(8.599 12.595)" fill="#f6f6f6"/>
    <path id="Trazado_1785" data-name="Trazado 1785" d="M11378.662,1400.279v-5.741h25.074v5.741Z" transform="translate(8.594 17.217)" fill="#f6f6f6"/>
    <path id="Trazado_1786" data-name="Trazado 1786" d="M11378.661,1409.2v-5.738h25.074v5.738Z" transform="translate(8.593 21.784)" fill="#f6f6f6"/>
    <path id="Trazado_1787" data-name="Trazado 1787" d="M11378.664,1382.279v-5.741h25.066v5.741Z" transform="translate(8.593 8.006)" fill="#f6f6f6"/>
    <path id="Trazado_1788" data-name="Trazado 1788" d="M11372.98,1382.491a3.044,3.044,0,0,1,.023-6.083,3.043,3.043,0,0,1-.023,6.083Z" transform="translate(4.197 7.94)" fill="#f6f6f6"/>
    <path id="Trazado_1789" data-name="Trazado 1789" d="M11370.07,1397.435a2.939,2.939,0,0,1,2.891-3.038,3.014,3.014,0,0,1,2.984,3.072,2.956,2.956,0,0,1-3.018,3.019A2.911,2.911,0,0,1,11370.07,1397.435Z" transform="translate(4.197 17.145)" fill="#f6f6f6"/>
    <path id="Trazado_1790" data-name="Trazado 1790" d="M11370.07,1406.363a2.938,2.938,0,0,1,2.887-3.041,3.011,3.011,0,0,1,2.988,3.067,2.954,2.954,0,0,1-3.014,3.022A2.909,2.909,0,0,1,11370.07,1406.363Z" transform="translate(4.197 21.712)" fill="#f6f6f6"/>
    <path id="Trazado_1791" data-name="Trazado 1791" d="M11370.07,1388.373a2.915,2.915,0,0,1,2.955-2.961,2.974,2.974,0,0,1,2.92,3.12,3.019,3.019,0,0,1-2.982,2.982A2.962,2.962,0,0,1,11370.07,1388.373Z" transform="translate(4.197 12.547)" fill="#f6f6f6"/>
  </g>
</svg>
