<svg xmlns="http://www.w3.org/2000/svg" width="99.974" height="100" viewBox="0 0 99.974 100">
  <g id="Último_plan_de_acción" data-name="Último plan de acción" transform="translate(-11069.572 -1357.409)">
    <path id="Trazado_1796" data-name="Trazado 1796" d="M11081.477,1445.745a35.267,35.267,0,0,1-6.023-.851,8.076,8.076,0,0,1-5.814-7.545,8.39,8.39,0,0,1,4.105-8.088,8.927,8.927,0,0,1,4.918-1.344c.9-.01,1.809,0,2.762,0V1416.2c-.949,0-1.912.013-2.875,0a8.786,8.786,0,1,1-.139-17.571c.975-.027,1.947,0,2.994,0v-11.634a39.5,39.5,0,0,1-4.445-.263,8.257,8.257,0,0,1-7.031-6.326,8.35,8.35,0,0,1,2.564-8.778,8.687,8.687,0,0,1,6.057-2.291c.939-.015,1.875,0,3,0a35.21,35.21,0,0,1,.023-3.94,8.71,8.71,0,0,1,8.816-7.972c.2,0,.389,0,.586,0q31.638,0,63.277-.006a9.044,9.044,0,0,1,7.66,3.532,9.361,9.361,0,0,1,1.8,5.947q-.009,27.144-.02,54.29a2.888,2.888,0,0,0,.785,2.077c10.313,11.712,4.068,30.474-11.229,33.694a22.862,22.862,0,0,1-4.652.439q-28.854.042-57.713.016c-5.541,0-9.367-3.829-9.4-9.389C11081.473,1447.21,11081.477,1446.4,11081.477,1445.745Zm53.109,5.8c-6.756-8.027-8.5-16.759-2.775-25.67,6.217-9.685,15.385-11.656,26.031-7.865v-50.984c0-2.747-1.01-3.748-3.775-3.748h-62.984c-.26,0-.521-.006-.783,0a2.931,2.931,0,0,0-2.951,2.994,26.109,26.109,0,0,0,.021,2.926,1.287,1.287,0,0,0,.617.89,8.507,8.507,0,0,1,5.172,8.067,8.368,8.368,0,0,1-5.178,7.943.941.941,0,0,0-.652,1.011q.032,5.664,0,11.326a.946.946,0,0,0,.682.993,8.744,8.744,0,0,1,.025,15.934,1.074,1.074,0,0,0-.7,1.177c.021,3.613.031,7.227-.006,10.838a1.342,1.342,0,0,0,.889,1.459,8.315,8.315,0,0,1,4.93,7.206c.254,3.307-.959,6.181-3.828,7.8a3.358,3.358,0,0,0-1.975,3.884.814.814,0,0,1,0,.1c.006,2.544,1.16,3.712,3.68,3.712h43.566Zm14.512,0a14.739,14.739,0,1,0-14.687-14.764A14.792,14.792,0,0,0,11149.1,1451.541Zm-67.771-70.5c1.01,0,2.02.022,3.027-.006a2.918,2.918,0,1,0,.006-5.835q-2.974-.052-5.951,0a2.918,2.918,0,1,0-.008,5.835C11079.375,1381.065,11080.352,1381.041,11081.326,1381.043Zm.141,23.445c-1.043,0-2.084-.03-3.125.008a2.915,2.915,0,1,0,.027,5.831q3.023.056,6.049,0a2.915,2.915,0,1,0-.027-5.831C11083.416,1404.461,11082.441,1404.488,11081.467,1404.488Zm-.082,29.294c-1.01,0-2.018-.028-3.025.006a2.915,2.915,0,1,0-.008,5.831q3.023.06,6.049,0a2.915,2.915,0,1,0,.008-5.831C11083.4,1433.753,11082.391,1433.781,11081.385,1433.781Z" transform="translate(0.001)" fill="#f6f6f6"/>
    <path id="Trazado_1797" data-name="Trazado 1797" d="M11098.272,1379.811c.377-.362.639-.6.887-.85q4.283-4.273,8.563-8.549c1.414-1.4,3.174-1.489,4.406-.245s1.131,2.985-.285,4.4q-5.578,5.6-11.18,11.178c-1.531,1.525-3.135,1.51-4.687-.029q-3.082-3.056-6.141-6.142c-1.387-1.4-1.463-3.188-.223-4.406a2.955,2.955,0,0,1,4.336.242C11095.378,1376.834,11096.776,1378.287,11098.272,1379.811Z" transform="translate(9.51 5.896)" fill="#f6f6f6"/>
    <path id="Trazado_1798" data-name="Trazado 1798" d="M11098.344,1395.48c3.09-3.1,6.074-6.094,9.059-9.083a9.07,9.07,0,0,1,.934-.856,2.907,2.907,0,0,1,4.07,4.061,6.992,6.992,0,0,1-.719.794q-5.408,5.419-10.832,10.833c-1.754,1.755-3.273,1.752-5.035,0-2.051-2.045-4.109-4.082-6.137-6.146a2.892,2.892,0,0,1-.625-3.489,2.735,2.735,0,0,1,2.992-1.523,4.36,4.36,0,0,1,1.91,1.049C11095.438,1392.485,11096.816,1393.949,11098.344,1395.48Z" transform="translate(9.505 13.668)" fill="#f6f6f6"/>
    <path id="Trazado_1799" data-name="Trazado 1799" d="M11098.409,1411.235c.645-.717,1.16-1.342,1.73-1.915q3.814-3.842,7.664-7.656a2.931,2.931,0,1,1,4.164,4.1q-5.666,5.714-11.383,11.384a2.906,2.906,0,0,1-4.477.022q-3.2-3.146-6.348-6.347a2.934,2.934,0,1,1,4.129-4.144C11095.351,1408.116,11096.776,1409.585,11098.409,1411.235Z" transform="translate(9.508 21.439)" fill="#f6f6f6"/>
    <path id="Trazado_1800" data-name="Trazado 1800" d="M11120.707,1373.208q4.143,0,8.287,0c2.076,0,3.41,1.138,3.428,2.9s-1.328,2.955-3.377,2.957q-8.435.007-16.865,0a2.935,2.935,0,1,1-.053-5.853C11114.986,1373.2,11117.848,1373.208,11120.707,1373.208Z" transform="translate(19.557 7.837)" fill="#f6f6f6"/>
    <path id="Trazado_1801" data-name="Trazado 1801" d="M11120.635,1394.734c-2.8,0-5.592.008-8.387,0a2.945,2.945,0,1,1,0-5.856q8.481-.014,16.963,0a2.94,2.94,0,1,1,0,5.855C11126.352,1394.743,11123.492,1394.734,11120.635,1394.734Z" transform="translate(19.56 15.609)" fill="#f6f6f6"/>
    <path id="Trazado_1802" data-name="Trazado 1802" d="M11129.07,1397.612a19.242,19.242,0,1,1-19.234,19.375A19.272,19.272,0,0,1,11129.07,1397.612Zm-5.131,11.549c0-.462,0-.863,0-1.263a1.265,1.265,0,0,0-.793-1.276,1.244,1.244,0,0,0-1.436.3q-2.493,2.383-4.979,4.771a1.285,1.285,0,0,0,.014,2q2.455,2.364,4.92,4.714a1.88,1.88,0,0,0,.311.253,1.279,1.279,0,0,0,1.957-1.084c.023-.662.006-1.324.006-1.995,2.865,0,5.67-.028,8.475.014a2.773,2.773,0,0,1,2.426,1.409,3.283,3.283,0,0,1,.086,3.4,2.958,2.958,0,0,1-2.779,1.58c-2.258.018-4.518,0-6.775.006a1.931,1.931,0,0,0-2.07,2.083q0,.821,0,1.644a1.924,1.924,0,0,0,2.031,2.042c2.191,0,4.383.021,6.574-.006a9.826,9.826,0,0,0,4.578-1.153c5.16-2.767,6.068-9.9,2.582-14.146a9.079,9.079,0,0,0-7.232-3.284c-2.473-.045-4.945-.009-7.418-.009Z" transform="translate(19.978 19.948)" fill="#f6f6f6"/>
  </g>
</svg>
