<svg xmlns="http://www.w3.org/2000/svg" width="119.189" height="100" viewBox="0 0 119.189 100">
  <g id="Visita_extraordinaria_virtual" data-name="Visita extraordinaria virtual" transform="translate(-1192.615 -1604.085)">
    <path id="Trazado_1803" data-name="Trazado 1803" d="M11398.569,1683.8c-10.377-4.979-17.766-12.6-21.871-23.217a40.356,40.356,0,0,1-.943-26.907,41.7,41.7,0,1,1,58.311,49.51c.48.249.871.462,1.271.652,6.867,3.239,13.732,6.488,20.613,9.694a1.453,1.453,0,0,1,1,1.563c-.053,2.975-.021,5.952-.021,8.988h-80.393c0-3.247-.025-6.453.041-9.659.006-.286.559-.655.928-.829q9.9-4.618,19.822-9.193C11397.7,1684.23,11398.073,1684.043,11398.569,1683.8Zm17.09-12.389a25.662,25.662,0,1,0-25.707-25.638A25.678,25.678,0,0,0,11415.659,1671.412Z" transform="translate(-10145.485)" fill="#f6f6f6"/>
    <path id="Trazado_1804" data-name="Trazado 1804" d="M11397.945,1649.626a7.124,7.124,0,0,1-1.936,4.614,48.262,48.262,0,0,1-13.406,11.364,59.382,59.382,0,0,1-22.447,7.45,5.965,5.965,0,0,1-2.143-11.714c3.205-.736,6.482-1.218,9.615-2.182a38.06,38.06,0,0,0,19.646-13.191,5.842,5.842,0,0,1,6.68-1.929A5.976,5.976,0,0,1,11397.945,1649.626Z" transform="translate(-10160.85 29.777)" fill="#f6f6f6"/>
    <path id="Trazado_1805" data-name="Trazado 1805" d="M11389.611,1627.069c1.723,4.491,4.453,6.539,8.449,6.329a7.978,7.978,0,0,0,7.238-5.917c.988-3.606-.465-6.852-4.176-9.321,4.953-1.941,14.391-.485,19.664,7.278a18.348,18.348,0,0,1-28.082,23.348C11385.85,1642.05,11386.193,1632.163,11389.611,1627.069Z" transform="translate(-10135.45 10.004)" fill="#f6f6f6"/>
  </g>
</svg>
