<?xml version="1.0" encoding="UTF-8"?><svg id="Capa_1" xmlns="http://www.w3.org/2000/svg" viewBox="0 0 1061.28 1061.28"><defs><style>.cls-1{fill:#fff;}.cls-2{fill:#ffc700;}</style></defs><circle class="cls-2" cx="530.64" cy="530.64" r="530.64"/><path class="cls-1" d="M492.58,294.91c0-10.98-.33-22,.07-32.99,.75-20.55,15.64-35.6,35.25-36.15,20-.55,35.67,13.05,37.58,33.67,.93,10.05,.16,20.26,.16,30.26,22.48,3.65,43.8,6.54,64.87,10.69,21.44,4.22,35.11,21.43,35.13,42.28,.02,21.47-12.66,39.22-32.74,42.51-9.2,1.51-19.12-1.38-28.71-2.24-25.17-2.28-50.33-5.76-75.54-6.24-10.31-.2-21.76,4.37-30.9,9.8-20.92,12.42-23.83,39.36-5.11,54.78,13.17,10.84,28.98,18.96,44.58,26.25,27.97,13.06,57.42,23.09,84.85,37.11,34.76,17.76,60.34,44.17,69.5,84.29,14.43,63.21-17.25,127.98-77.08,153.82-13.91,6-28.61,10.33-43.24,14.4-6.88,1.91-10.01,4.43-9.57,11.93,.59,10.14,.42,20.37-.03,30.53-.93,20.97-15.41,35.49-35.33,35.89-20.6,.42-35.65-13.74-37.14-35.36-.52-7.6-.84-15.32-.15-22.88,.9-9.79-2.76-12.6-12.53-13.91-23.84-3.2-47.7-7.19-71.03-12.97-23.61-5.86-37-26.46-35.01-49.5,2.59-29.96,25.91-46.37,54.54-37.34,31.41,9.9,63.24,16.41,96.22,13.41,11.18-1.02,22.8-3.63,32.97-8.27,29.99-13.68,35.15-47.85,10.17-69.58-10.31-8.97-23.14-15.57-35.69-21.36-33.38-15.38-68.15-28-100.64-45.01-28.51-14.93-49.09-39.02-57.61-71.16-15.97-60.29,14.84-123.03,73.15-148.71,15.39-6.78,31.61-11.65,48.98-17.95Z"/></svg>