<?xml version="1.0" encoding="UTF-8"?><svg id="Capa_1" xmlns="http://www.w3.org/2000/svg" viewBox="0 0 457.87 437.42"><defs><style>.cls-1{fill:#fff;}.cls-2{fill:#ffc700;}</style></defs><path class="cls-2" d="M276.45,143.5c1.4-45.06,34.02-81.83,78.48-88.25,47.73-6.89,93.19,26.26,101.76,73.84,2.89,16.06,.24,31.19-5.22,46.2-9.97,27.38-23.47,53.06-37.72,78.36-7.97,14.16-16.27,28.14-24.67,42.05-10.49,17.37-32.91,17.42-43.42,.14-19.78-32.49-38.86-65.37-54.3-100.21-6.1-13.77-11.75-27.74-14.09-42.75-.48-3.09-.56-6.25-.82-9.38Zm91.02-40.95c-20.11-.05-36.51,16.16-36.57,36.18-.07,20.19,16.35,36.71,36.47,36.69,20-.02,36.38-16.4,36.41-36.42,.03-20.08-16.22-36.4-36.31-36.45Z"/><path class="cls-1" d="M297.19,380.69v27.47h-3.96c-73.22,0-146.43,.06-219.65-.03-34.94-.04-63.61-22.58-71.64-55.97-10.44-43.38,22.43-87.17,67.09-88.36,29.88-.8,59.79-.13,89.68-.28,18.91-.09,32.93-8.55,41.78-25.33,12.07-22.9-.69-53.98-25.51-61.48-5.59-1.69-11.61-2.52-17.47-2.69-13.26-.39-26.54-.12-39.81-.12-1.64,0-3.28,0-4.65,0v-27.12c-.16,.12,.07-.21,.31-.21,19.35,.24,38.84-.87,58.02,1.08,37.5,3.8,66.14,42.48,60.59,79.8-5.66,38.03-35.03,63.49-73.44,63.58-28.83,.06-57.66-.15-86.48,.07-25.08,.2-45.06,21.14-44.48,46.11,.54,22.96,20.04,42.79,43.04,43.39,12.8,.33,25.62,.1,38.44,.11,61.01,0,122.02,0,183.04,0,1.79,0,3.59,0,5.1,0Z"/><path class="cls-2" d="M56.83,86.05c0,10.75-.11,20.8,.13,30.85,.03,1.29,1.59,3.11,2.89,3.72,21.85,10.12,31.43,32.71,23.26,55.21-9.27,25.55-43.55,35.66-65.06,19.18-27.19-20.83-22.82-60.14,8.36-74.23,2.72-1.23,2.96-2.84,2.96-5.27-.05-32.93-.04-65.85-.03-98.78C29.35,5.07,34.4,.01,46.03,0c27.45,0,54.9-.01,82.35,0,11.08,0,16.32,5.18,16.34,16.14,.02,17.99,.03,35.97,0,53.96-.02,10.67-5.32,15.91-16.09,15.92-22.11,.02-44.22,0-66.33,0-1.65,0-3.3,0-5.45,0Z"/><path class="cls-1" d="M410.16,394.65c-.23,23.62-20.14,43.23-43.44,42.77-23.58-.47-42.78-19.96-42.56-43.2,.23-23.62,20.14-43.23,43.44-42.77,23.57,.47,42.78,19.96,42.56,43.2Z"/></svg>