<?xml version="1.0" encoding="UTF-8"?><svg id="Capa_1" xmlns="http://www.w3.org/2000/svg" viewBox="0 0 1032.7 786.01"><defs><style>.cls-1{fill:#fff;}.cls-2{fill:#ffc700;}</style></defs><g><path class="cls-1" d="M411.77,259.28c64.2,44.67,143.02,51.65,218.27,.18,44.11,34.17,69.76,78.78,73.31,134.74,1.8,28.38,1.09,56.97,.55,85.44-.42,22.09-16.62,35.95-40.74,35.98-82.25,.09-164.51,.04-246.76,.03-14.25,0-28.52,.33-42.75-.15-18.98-.63-35.53-13.79-35.56-31.99-.06-38.55-.77-77.52,4.45-115.54,6.23-45.35,32.71-80.62,69.23-108.71Z"/><path class="cls-1" d="M410.82,110.57C412.58,48.87,464.44-2.23,522.95,.07c60.2,2.37,109.09,53.95,107.74,113.69-1.37,60.94-52.69,110.57-112.16,108.47-60.9-2.16-109.41-52.44-107.72-111.66Z"/></g><g><path class="cls-2" d="M294.68,529.34c44.7,34.55,70.33,79.55,73.71,135.98,1.68,27.99,1,56.15,.49,84.22-.39,21.73-16.35,36.1-39.33,36.16-68.81,.16-137.62,.06-206.43,.06-27.69,0-55.37,.14-83.06-.04-25.37-.17-40.57-14.92-40.05-40.37,.71-34.91-.41-70.23,4.69-104.57,6.94-46.69,34.55-82.42,71.97-111.4,72.5,48.51,145.11,48.68,218-.03Z"/><path class="cls-2" d="M295.62,384.23c-1.72,60.69-52.05,109.54-111.39,108.14-61.07-1.45-110.69-52.83-108.44-112.27,2.31-61,52.77-109.44,111.97-107.5,60.84,2,109.54,52.4,107.86,111.63Z"/></g><g><path class="cls-2" d="M737.87,529.81c73,48.31,145.23,48.04,217.61-.34,44.76,34.84,72.41,79.22,76.08,136.3,1.8,27.97,1.06,56.15,.5,84.21-.44,22.03-16.7,35.86-40.82,35.89-87.54,.09-175.08,.04-262.62,.03-10.18,0-20.38,.35-30.53-.21-18.18-1-34.31-14.25-34.31-31.97,0-38.55-.37-77.43,4.39-115.55,5.35-42.81,33.94-82.94,69.69-108.36Z"/><path class="cls-2" d="M844.74,492.49c-60.69-1.68-109.59-51.96-108.24-111.29,1.39-61,52.78-110.64,112.27-108.45,60.97,2.25,109.5,52.7,107.59,111.87-1.95,60.8-52.37,109.51-111.63,107.87Z"/></g></svg>