<?xml version="1.0" encoding="UTF-8"?><svg id="Capa_1" xmlns="http://www.w3.org/2000/svg" viewBox="0 0 993.82 865.14"><defs><style>.cls-1{fill:#fff;}.cls-2{fill:#ffc700;}</style></defs><path class="cls-2" d="M791.63,298.89v12.98c0,173.49,0,346.98-.05,520.46,0,4.82-.35,9.7-1.19,14.44-1.71,9.59-7.61,15.44-17.21,17.17-4.1,.74-8.33,1.16-12.49,1.16-175.73,.06-351.45,.06-527.18,0-4.17,0-8.39-.37-12.5-1.07-10.02-1.7-16.14-7.71-17.79-17.75-.78-4.75-1.08-9.63-1.08-14.45-.05-173.49-.04-346.98-.04-520.46,0-4.15,0-8.31,0-13.72-22.21,6.51-43.21,12.65-64.2,18.84-7.44,2.19-14.82,4.57-22.27,6.71-16.87,4.85-25.3,1.29-33.27-14.33-15.28-29.94-30.43-59.94-45.63-89.92-10.82-21.33-21.72-42.62-32.41-64.02-8.57-17.14-4.47-28.87,13.08-37,60.39-27.99,120.03-57.84,181.59-82.99,35.6-14.55,74.33-21.45,111.66-31.76,2.8-.77,5.67-1.28,8.53-1.84,19.31-3.81,28.27,1.76,33.64,20.87,18.9,67.25,75.8,111.32,143.86,111.44,67.95,.12,125.65-44.31,144.2-111.04,5.47-19.66,14.59-25.9,34.25-21.01,37.28,9.28,75.09,17.31,111.26,29.93,32.8,11.44,63.74,28.24,95.45,42.79,31.13,14.28,62.22,28.66,93.29,43.08,19.38,8.99,23.23,19.95,13.66,38.88-25.51,50.48-51.06,100.94-76.65,151.39-8.72,17.2-16.75,20.56-35.41,15.07-27.27-8.03-54.53-16.09-81.8-24.1-.57-.17-1.27,.08-3.3,.27Z"/><path class="cls-1" d="M404.25,16.04c62.25,14.21,123.33,14.13,184.61,.18-7.65,35.44-46.62,64.9-87.3,66.71-44.3,1.97-84.31-25.09-97.31-66.89Z"/></svg>