<?xml version="1.0" encoding="UTF-8"?><svg id="Capa_1" xmlns="http://www.w3.org/2000/svg" viewBox="0 0 397.25 397.98"><defs><style>.cls-1{fill:#fff;}.cls-2{fill:#ffc700;}</style></defs><path class="cls-2" d="M90.35,106.25C92.02,52.55,130.9,8.72,183.88,1.08c56.88-8.21,111.05,31.3,121.27,88,3.45,19.14,.29,37.17-6.22,55.05-11.88,32.63-27.97,63.23-44.95,93.39-9.5,16.87-19.39,33.53-29.4,50.11-12.5,20.7-39.22,20.76-51.75,.17-23.57-38.72-46.32-77.91-64.71-119.43-7.27-16.41-14-33.05-16.8-50.95-.58-3.69-.66-7.45-.98-11.17Zm108.47-48.8c-23.97-.06-43.51,19.26-43.59,43.12-.08,24.06,19.49,43.75,43.46,43.73,23.84-.02,43.36-19.54,43.4-43.41,.04-23.93-19.33-43.37-43.27-43.44Z"/><path class="cls-1" d="M198.71,397.98c-42.06-1.04-83.65-4.79-124.22-16.39-18.56-5.3-36.69-11.86-52.3-23.59-5.5-4.13-10.65-9.13-14.78-14.62-9.95-13.21-9.75-29.04-.22-42.54,7.1-10.07,16.82-17.08,27.6-22.65,5.31-2.75,11.81-.45,14.81,4.65,3.09,5.25,1.65,11.85-3.5,15.44-4.34,3.03-9.02,5.61-13.12,8.91-12.67,10.2-12.69,19.39-.14,29.76,11.66,9.64,25.5,15.08,39.65,19.69,28.03,9.13,56.96,13.51,86.27,15.76,27.12,2.08,54.24,2.13,81.34-.12,35.65-2.95,70.77-8.49,103.85-23.03,8.55-3.76,16.68-8.27,23.39-14.93,8.73-8.66,8.88-16.3-.17-24.53-4.64-4.22-10.14-7.49-15.34-11.07-4.19-2.89-6.39-7.4-5.56-11.92,.91-4.92,4.53-8.84,9.5-9.45,2.31-.28,5.05,.01,7.09,1.05,9.16,4.65,17.48,10.57,24.19,18.45,14.5,17.03,13.46,37.23-2.75,53.45-12.15,12.17-27.3,19.33-43.12,25.25-27.02,10.12-55.13,15.6-83.73,18.39-19.53,1.91-39.16,2.73-58.75,4.04Z"/><path class="cls-1" d="M144.2,285.47c-17.48,3.41-34.65,6.06-49.71,15.33-1.28,.79-2.37,1.9-4.58,3.7,5.08,2.78,9.36,5.6,13.99,7.55,15.24,6.41,31.39,9.36,47.69,11.27,38.98,4.57,77.9,4.27,116.43-3.83,10.39-2.18,20.41-6.24,30.47-9.81,2.91-1.03,5.38-3.34,8.87-5.59-16.46-12.47-35.43-14.71-54.16-18.7,3.96-6.74,7.67-13.22,11.59-19.56,.48-.78,2.19-1.38,3.17-1.19,15.51,2.97,30.81,6.71,44.58,14.79,3.74,2.2,7.31,4.94,10.35,8.04,9.69,9.89,9.59,23.33-.07,33.25-8.47,8.7-19.4,13.08-30.64,16.66-19.92,6.34-40.47,9.34-61.25,10.85-26.47,1.93-52.94,1.74-79.31-1.47-21.32-2.59-42.48-6.09-61.99-15.68-5.36-2.63-10.55-6.17-14.84-10.3-10.26-9.88-10.04-23.57-.02-33.75,7.35-7.47,16.6-11.84,26.36-14.96,8.95-2.86,18.16-4.92,27.24-7.38,2.31-.62,3.75-.06,4.99,2.18,3.36,6.09,7,12.03,10.85,18.58Z"/></svg>