<?xml version="1.0" encoding="UTF-8"?><svg id="Capa_1" xmlns="http://www.w3.org/2000/svg" viewBox="0 0 864.34 1080"><defs><style>.cls-1{fill:#ffc700;}</style></defs><path class="cls-1" d="M252.79,162.08c6.67-52.85,30.24-95.28,72.46-126.62C358.24,10.97,395.55-.39,436.64,.01c72.07,.71,161.45,52.7,176.49,162.07,14.07,0,28.3,.61,42.45-.1,68.28-3.44,102.66,46.68,109.35,95.31,23.53,171.08,46.81,342.2,70.25,513.29,9.36,68.29,18.97,136.54,28.32,204.83,7.34,53.57-34.37,100.96-91.63,104.32-3.37,.2-6.74,.23-10.12,.23-219.66,.01-439.33-.02-658.99,.05-24.81,0-47.41-6.66-67.11-21.78-27.98-21.46-39.45-49.68-34.56-84.89,14.23-102.4,28.09-204.86,42.16-307.29,14.68-106.88,29.46-213.75,44.16-320.63,4.03-29.32,7.28-58.76,12.09-87.95,7.26-44.07,28.17-78.1,73.48-91.65,9.51-2.84,19.92-3.24,29.95-3.58,16.39-.56,32.81-.15,49.85-.15Zm38.04-.54h283.92c-4.43-71.34-73.09-128.52-149.94-125.24-69.02,2.94-135.23,64.57-133.98,125.24Zm142.07,357.57c14.04-2.04,28.3-3.13,42.08-6.29,79.5-18.24,139.07-92.89,137.51-171.62-.24-12.2-6.26-19.11-16.98-19.47-10.78-.37-17.59,6.04-18.75,18.02-.62,6.34-.3,12.78-1.21,19.07-9.83,68.43-67.66,120.68-135.88,122.95-72.49,2.41-133.93-44.36-148.36-113.4-2.06-9.83-2.11-20.08-3.17-30.13-1.08-10.27-7.82-16.49-17.77-16.51-9.91-.02-17,6.27-17.85,16.43-.4,4.83-.16,9.76,.25,14.6,8.03,94.01,85.59,165.14,180.12,166.37Z"/></svg>