<svg id="Capa_1" data-name="Capa 1" xmlns="http://www.w3.org/2000/svg" viewBox="0 0 60 60"><defs><style>.cls-1{fill:#f6f6f6;}</style></defs><path class="cls-1" d="M28.78,19.85l4.3,3.31q6.38,4.9,12.74,9.82a.82.82,0,0,1,.32.58q0,8.64,0,17.27c0,.08,0,.16,0,.28H32.78V38H25.36V51.11H11.42c0-.14,0-.28,0-.42,0-5.69,0-11.38,0-17.07a.89.89,0,0,1,.27-.61L28.56,20Z"/><path class="cls-1" d="M39.53,13.68h7.36v.6q0,4,0,8a.89.89,0,0,0,.41.82c2.12,1.61,4.23,3.24,6.34,4.86l.41.34-3.48,4.52L28.77,16.11,7,32.86,3.49,28.33,28.77,8.89l10.76,8.27Z"/></svg>