<svg id="Capa_1" data-name="Capa 1" xmlns="http://www.w3.org/2000/svg" viewBox="0 0 60 60"><defs><style>.cls-1{fill:#f6f6f6;}</style></defs><path class="cls-1" d="M52.86,29.51A22.36,22.36,0,1,0,31.38,52.34,22.41,22.41,0,0,0,52.86,29.51ZM48,24a1.51,1.51,0,0,0-1.6-.28l0,.6-2.51-.75V22.44l-2.17.16a.53.53,0,0,0-.28.1,2,2,0,0,1-1.55.28c-.6-.08-1,.34-1.41.59-.08,0-.09.32-.07.48a1,1,0,0,1-.56,1.09c-.48.29-.9.64-1.35,1-.19.13-.39.23-.29.55s.19.46.55.4c0,.32,0,.63-.32.77a.15.15,0,0,0-.06.05,3.64,3.64,0,0,0,.22,2c.46.53.95,1,1.37,1.58a1,1,0,0,0,1,.35c.45,0,.91-.08,1.35-.15a1.66,1.66,0,0,0,.62-.23c.26-.17,1-.28,1.14-.06a1.59,1.59,0,0,0,1.3.46l.38.06c0,.48-.09.94-.11,1.4a1.12,1.12,0,0,0,.11.57c.35.67.73,1.32,1.12,2a.57.57,0,0,1,0,.64c-.17.27-.3.56-.45.85a.92.92,0,0,0,.18,1.21.88.88,0,0,1,.32.81,2.28,2.28,0,0,0,.63,2,.78.78,0,0,1,.15.48c0,.34,0,.69,0,1l.57,0a20.44,20.44,0,0,1-34.7-20.83,1.55,1.55,0,0,1,0,.26.82.82,0,0,0,.63,1.08c.1,0,.17.23.22.36a.56.56,0,0,1,0,.26,2.85,2.85,0,0,0,.71,2.29c.14.18.45.24.68.36a.68.68,0,0,0-.05-.88,2.77,2.77,0,0,1-.67-2h.37s0,.06,0,.08a4.24,4.24,0,0,0,1.12,2.45.47.47,0,0,1,.05.62.67.67,0,0,0,0,.46c.35,1,1.3,1,2.14,1.25.06,0,.14,0,.2,0l.71-.18c0,.27,0,.41,0,.56s.1.08.15.08A2.48,2.48,0,0,1,20,30.31a1.16,1.16,0,0,0,1.14.56l.57,0c.23,0,.36.1.34.34a.09.09,0,0,0,0,.05,1,1,0,0,1-.65,1.45.55.55,0,0,0-.33.6,2.3,2.3,0,0,1-.07.83,1.09,1.09,0,0,0,.33,1.2c.33.37.62.77.93,1.16.06.08.16.17.16.25,0,.55.36.67.79.84a4.27,4.27,0,0,1,1.07.74.58.58,0,0,1,.15.42c0,.9,0,1.8,0,2.7,0,.3-.07.63.43.6-.08.47-.18.88-.21,1.3a.88.88,0,0,0,.15.62,1.59,1.59,0,0,1,.41,1.55,1.79,1.79,0,0,0,.27,1.32,6.85,6.85,0,0,0,1.42,1.8,2,2,0,0,0,1.5.35c.22,0,.3-.32.13-.49a2.54,2.54,0,0,0-.44-.37.59.59,0,0,1-.22-.82A3.82,3.82,0,0,0,28,46.7l-.91-.4.59-.86L27.12,45c.19-.09.37-.19.56-.26.72-.27,1.45-.44,1.84-1.25a6.55,6.55,0,0,1,1-1.39.85.85,0,0,0,.19-.87c-.11-.38-.29-.76,0-1.17a.6.6,0,0,1,.55-.3c.37,0,.73.11,1.09-.16A1.27,1.27,0,0,0,33,38.53,8.62,8.62,0,0,1,33.15,37a1.74,1.74,0,0,1,.3-.65c.31-.44.76-.82.71-1.47a1.17,1.17,0,0,0-.25-.11,1,1,0,0,1-.8-.65.59.59,0,0,0-.68-.39,4.65,4.65,0,0,1-2.38-.39c-.29-.13-.45-.25-.44-.58a1.73,1.73,0,0,0-.1-.68c-.26-.72-.36-.8-1.14-.76a.82.82,0,0,1-.89-.51c-.23-.44-.48-.87-1-.85a3.66,3.66,0,0,1-.55.21,1,1,0,0,1-1.18-.43c-.12-.2-.58-.18-.87-.3a.58.58,0,0,0-.79.32,1.36,1.36,0,0,1-1.75.64c-.49-.12-.64-.28-.62-.75a10.47,10.47,0,0,0-.09-1.21l-1.12-.21c0-.47.65-.82.23-1.39-.42.28-.84.55-1.26.84a1.36,1.36,0,0,1-1.21,0c-.23-.06-.36-.77-.29-1.1a2.58,2.58,0,0,1,1.82-2,1.58,1.58,0,0,1,.43-.05H21.3c-.16.68.22.95.83,1.08a2.46,2.46,0,0,0,0-.47,1.33,1.33,0,0,1,.75-1.46,7.54,7.54,0,0,1,.7-.45c.28-.17.5-.35.48-.71a.33.33,0,0,1,.1-.23A5.72,5.72,0,0,1,26,20.73c.56-.21.81-.74,1.23-1.1s.49-.32.78,0l.35-.39a2.5,2.5,0,0,1-.45-.13c-.09-.05-.21-.16-.22-.25s.12-.3.17-.3a1.32,1.32,0,0,1,.7.15.93.93,0,0,0,1.1,0c.07-.08.22-.07.34-.1,0,.13,0,.29,0,.38-.31.42-.3.5.21.66l.94.27c.17-.41.05-.62-.29-.72a1,1,0,0,1-.24-.11c-.1-.08-.19-.18-.29-.27a2.61,2.61,0,0,1,.3-.2c.18-.09.43-.08.43-.4s0-.55-.32-.67a.69.69,0,0,1-.48-.82c0-.18,0-.37,0-.62l-1.48.58c0-.41.06-.68.09-1a5.64,5.64,0,0,0-1.35-.29c-.24,0-.48.36-.7.57,0,0,0,.12,0,.17.11.74,0,1.25-.91,1.37-.18,0-.3.41-.47.62s-.31.29-.47.44l-.13-.09v-1A8.4,8.4,0,0,1,23.43,17a.62.62,0,0,1,0-1.15,6.26,6.26,0,0,1,2.25-1l.16.65c.2-.13.33-.23.48-.31s.32-.15.48-.23l-.17-.29A5.41,5.41,0,0,1,27.68,14,3.84,3.84,0,0,1,29,13.72c.21,0,.42.26.7.45L28.15,15l2,.47a1.22,1.22,0,0,0,.12-.31c.07-.3.24-.38.54-.37.52,0,.52,0,.73-.55L31,14.09S31,14,31,14a.75.75,0,0,0-.63-.94,3.43,3.43,0,0,1-.76-.33,2.7,2.7,0,0,0-2.19.08.57.57,0,0,0-.42.76A4.48,4.48,0,0,1,27,14c-.3-.1-.67-.11-.78-.29-.32-.53.33-.66.51-1-.78-.36-1.61-.17-1.75.42l.4.1c.06.35,0,.54-.41.54s-.54,0-.65.3c0,.05-.18.07-.27.07h-1c0-.22-.05-.43-.09-.7a1.44,1.44,0,0,0,1.65-.72c-.3-.25-.3-.25-.56,0a.93.93,0,0,1-1.5-.13A1.42,1.42,0,0,0,21,12.37a5.15,5.15,0,0,0-.93.8h.57c.5,0,.57.12.32.55.37.23,1-.25,1.27.47H21a3.36,3.36,0,0,0-2.31-.81c5.88-4.66,17-6.07,25.47,1.33-.24.18-.44.34-.66.48a5.81,5.81,0,0,0-.83.52c-.28.25-.15.58.2.7a.71.71,0,0,1,.32.3,2.1,2.1,0,0,1,.19.45l.84-.3c0,.31.09.59.15.95l-.74-.07c-.53,0-1,0-1.3.55-.2.37-.45.73-1,.69s-.62.21-.61.63a2.21,2.21,0,0,1-.06.32l.43.18-.11.46c-.56,0-1.11,0-1.64,0a.63.63,0,0,0-.57.76,5.39,5.39,0,0,1,.08.56c0,.51.36.6.74.69.08,0,.17,0,.26,0,.68.06,1.32,0,1.6-.78a2.38,2.38,0,0,1,.44-.59c.22-.33.44-.62.91-.41.07,0,.21-.05.3-.11s.3-.27.45-.4c.33.8,1.18.95,1.71,1.5-.1.45-.51.14-.76.28a.51.51,0,0,0,.65.4c.29,0,.55-.16.49-.57,0-.13.08-.28.13-.44a11.92,11.92,0,0,1-1.19-.86c-.15-.12-.16-.39-.25-.65.34,0,.68-.06.9.07a5.65,5.65,0,0,1,1,.86.28.28,0,0,1,0,.2c-.09.68.39,1,.8,1.4.28-.46.06-1.19.86-1.34,0,.16,0,.32.06.49a.93.93,0,0,0,1.07,1c.48,0,.69.11.78.56a9.7,9.7,0,0,0,.4,1.18C49.43,24.23,48.66,24.61,48,24Z"/><path class="cls-1" d="M40.48,17.44a5.1,5.1,0,0,1,.4.51c-.75,0-.61.4-.65.74,1,.16,1.42,0,1.72-.52-.8-.33-1-1.07-1.15-1.81-.36,0-.73,0-.84.43S40.28,17.24,40.48,17.44Z"/><path class="cls-1" d="M40,18a.61.61,0,0,0,.18-.5c0-.1-.31-.2-.47-.19a.94.94,0,0,0-.8,1.15C39.4,18.58,39.67,18.21,40,18Z"/><path class="cls-1" d="M28.84,19.79a5.73,5.73,0,0,0-.71.4c.06.29.26.43.53.25a6.79,6.79,0,0,0,.68-.66A1.57,1.57,0,0,0,28.84,19.79Z"/></svg>