<svg id="Capa_1" data-name="Capa 1" xmlns="http://www.w3.org/2000/svg" viewBox="0 0 60 60"><defs><style>.cls-1{fill:#f6f6f6;}</style></defs><path class="cls-1" d="M28.27,26.81a3.69,3.69,0,1,0,4.63,2.62l-2.84,1.89-.12.05a.4.4,0,0,1-.42-.16l-.75-1.13a.39.39,0,0,1-.06-.3.37.37,0,0,1,.16-.24l2.92-1.95A3.71,3.71,0,0,0,28.27,26.81Z"/><path class="cls-1" d="M35.25,28.56a6.17,6.17,0,1,1-1.34-2.38l1.93-1.28a8.49,8.49,0,1,0,1.61,3A7.84,7.84,0,0,0,37,26.7L35.05,28A3.49,3.49,0,0,1,35.25,28.56Z"/><path class="cls-1" d="M30,11.87A18.12,18.12,0,1,0,48.1,30,18.13,18.13,0,0,0,30,11.87ZM44.62,23.7,39.68,27a.34.34,0,0,1-.12.06h-.14a1.87,1.87,0,0,1,.07.22,10.59,10.59,0,1,1-3-4.77.37.37,0,0,1,.12-.13l4.93-3.29a.33.33,0,0,1,.12-.05.38.38,0,0,1,.31.05.39.39,0,0,1,.16.41l-.64,2.84,0,.09h.1l2.91.56a.38.38,0,0,1,.31.3A.39.39,0,0,1,44.62,23.7Z"/><path class="cls-1" d="M36.92,25.88l1.51-1c-.12-.2-.24-.39-.37-.57l-1.52,1Z"/><path class="cls-1" d="M36.35,25l-.27.18a8,8,0,0,1,.73,1.15l.24-.16,2.22.43a10.45,10.45,0,0,0-.84-1.75l-1.51,1-.38-.57,1.52-1a9.82,9.82,0,0,0-1.24-1.48A12.68,12.68,0,0,1,36.36,25Z"/><path class="cls-1" d="M32.78,29l2.11-1.41a5.47,5.47,0,0,0-.73-1.15l-2.09,1.4A3.69,3.69,0,0,1,32.78,29Z"/><path class="cls-1" d="M29.85,31,32.78,29a3.69,3.69,0,0,0-.71-1.16l-3,2Z"/><path class="cls-1" d="M34.16,26.48a5.47,5.47,0,0,1,.73,1.15l1.92-1.28a8,8,0,0,0-.73-1.15Z"/><path class="cls-1" d="M41.12,22.26l.64-2.84L36.84,22.7s0,.08,0,.12a9.82,9.82,0,0,1,1.24,1.48Z"/><path class="cls-1" d="M39.31,26.63l.16,0,4.94-3.29-2.92-.56-3.06,2.05a10.45,10.45,0,0,1,.84,1.75Z"/><path class="cls-1" d="M30,7.6A22.4,22.4,0,1,0,52.38,30,22.4,22.4,0,0,0,30,7.6Zm0,43A20.56,20.56,0,1,1,50.54,30,20.59,20.59,0,0,1,30,50.56Z"/></svg>