<svg id="Capa_1" data-name="Capa 1" xmlns="http://www.w3.org/2000/svg" viewBox="0 0 60 60"><defs><style>.cls-1{fill:#f6f6f6;}</style></defs><path class="cls-1" d="M17,13.86c0-.64,0-1.26.09-1.87a3.24,3.24,0,0,1,6.45.13c.05.57,0,1.15,0,1.75h3.41c0-.57,0-1.14,0-1.7a3.31,3.31,0,0,1,3.23-3.1,3.27,3.27,0,0,1,3.23,3c.06.59.06,1.18.09,1.84h3.28c0-.67,0-1.31.1-1.93a3.28,3.28,0,0,1,3.23-2.9,3.32,3.32,0,0,1,3.22,3c0,.57,0,1.15,0,1.8H44.5a5.21,5.21,0,0,1,5.21,4,6.2,6.2,0,0,1,.15,1.43q0,14.49,0,29a5.18,5.18,0,0,1-5.4,5.4h-29a5.2,5.2,0,0,1-5.31-4.45,6.7,6.7,0,0,1,0-1c0-9.63,0-19.26,0-28.89A5.27,5.27,0,0,1,14.34,14,24.48,24.48,0,0,1,17,13.86Zm-3.82,7.71V48.2a2.2,2.2,0,0,0,2.45,2.45H44.35A2.2,2.2,0,0,0,46.8,48.2V22.05c0-.15,0-.31,0-.48Zm8.55-6.13c0-1,0-2,0-3a1.49,1.49,0,0,0-1.42-1.57,1.47,1.47,0,0,0-1.43,1.52c0,2,0,4,0,6a1.47,1.47,0,0,0,.85,1.38,1.42,1.42,0,0,0,2-1.37C21.7,17.45,21.68,16.44,21.68,15.44Zm19.8,0h0c0-1,0-2,0-3a1.48,1.48,0,0,0-1.41-1.58,1.46,1.46,0,0,0-1.44,1.51q0,3,0,6a1.45,1.45,0,0,0,.83,1.34,1.42,1.42,0,0,0,2-1.35C41.49,17.46,41.48,16.45,41.48,15.45Zm-12.74,0h0c0,1,0,2.09,0,3.14A1.42,1.42,0,0,0,30.11,20a1.45,1.45,0,0,0,1.44-1.26,3.88,3.88,0,0,0,0-.48V12.65a2.76,2.76,0,0,0-.06-.57,1.41,1.41,0,0,0-2.79.27C28.71,13.38,28.74,14.41,28.74,15.44Z"/><path class="cls-1" d="M38.44,32V27H44v5Z"/><path class="cls-1" d="M38.45,33.68H44v5H38.45Z"/><path class="cls-1" d="M15.91,32V27h5.57V32Z"/><path class="cls-1" d="M15.91,33.68h5.57v5H15.91Z"/><path class="cls-1" d="M23.44,27H29v5H23.44Z"/><path class="cls-1" d="M36.49,32H31V27h5.54Z"/><path class="cls-1" d="M29,38.64H23.42v-5H29Z"/><path class="cls-1" d="M36.5,38.65H31v-5H36.5Z"/><path class="cls-1" d="M21.49,40.39v4.92H15.91V40.39Z"/><path class="cls-1" d="M38.45,40.37H44v4.94H38.45Z"/><path class="cls-1" d="M29,45.32H23.43V40.38H29Z"/><path class="cls-1" d="M30.93,45.32V40.39h5.58v4.93Z"/></svg>