<svg id="Capa_1" data-name="Capa 1" xmlns="http://www.w3.org/2000/svg" viewBox="0 0 60 60"><defs><style>.cls-1{fill:#ffc700;}</style></defs><path class="cls-1" d="M26.77,10c0-.93,0-1.86,0-2.8A3.09,3.09,0,0,1,33,7c.07.86,0,1.72,0,2.57,1.91.31,3.71.56,5.5.91a3.58,3.58,0,0,1,3,3.59,3.43,3.43,0,0,1-2.78,3.6,10.08,10.08,0,0,1-2.43-.19c-2.14-.19-4.27-.49-6.41-.53a5.39,5.39,0,0,0-2.62.83,2.78,2.78,0,0,0-.43,4.65,17.65,17.65,0,0,0,3.78,2.23c2.37,1.1,4.87,2,7.2,3.14A10.45,10.45,0,0,1,43.65,35a11.37,11.37,0,0,1-6.54,13,29.13,29.13,0,0,1-3.66,1.23c-.59.16-.85.37-.82,1a24.86,24.86,0,0,1,0,2.59,3.08,3.08,0,0,1-6.15,0,12.56,12.56,0,0,1,0-1.94c.08-.83-.23-1.07-1.06-1.18a56,56,0,0,1-6-1.1,3.86,3.86,0,0,1-3-4.2A3.39,3.39,0,0,1,21,41.27a20.62,20.62,0,0,0,8.16,1.14,8.67,8.67,0,0,0,2.8-.7,3.4,3.4,0,0,0,.86-5.9,12.48,12.48,0,0,0-3-1.81c-2.83-1.31-5.78-2.38-8.53-3.82a9.41,9.41,0,0,1-4.89-6,10.77,10.77,0,0,1,6.21-12.61C23.92,11,25.3,10.54,26.77,10Z"/></svg>