<svg xmlns="http://www.w3.org/2000/svg" width="107.924" height="100" viewBox="0 0 107.924 100">
  <g id="Finalizar" transform="translate(-2500.45 -1643.138)">
    <path id="Trazado_48606" data-name="Trazado 48606" d="M2589.62,1732.233v-1.357q0-19.173,0-38.343c0-3.019,1.553-5.115,4.234-5.769a5.382,5.382,0,0,1,6.542,4.5,10.28,10.28,0,0,1,.1,1.258q.007,22.333,0,44.663c0,2.408-.867,4.375-3.138,5.38a8.065,8.065,0,0,1-3.17.543q-36.042.043-72.082.022-7.8,0-15.6,0c-3.9-.007-6.067-2.178-6.067-6.062q0-43.926,0-87.851c0-3.835,2.169-6.044,5.979-6.044,22.13-.008,44.261.039,66.391-.039,4.73-.015,7.281,4.578,5.16,8.2a5.128,5.128,0,0,1-4.3,2.639c-.525.034-1.054.032-1.58.032q-29.612,0-59.225,0h-1.445v78.227Z" fill="#fff"/>
    <path id="Trazado_48607" data-name="Trazado 48607" d="M2543.1,1697.987a10.263,10.263,0,0,1,.911-1.276q23.61-23.629,47.232-47.245c1.564-1.566,3.31-2.461,5.574-1.967a5.4,5.4,0,0,1,3.181,8.474,11.655,11.655,0,0,1-1.128,1.248q-25.706,25.706-51.418,51.4c-2.938,2.937-5.939,2.928-8.895-.025q-12.633-12.625-25.262-25.254c-2.44-2.442-2.69-5.494-.665-7.821a5.366,5.366,0,0,1,7.319-.78,12.232,12.232,0,0,1,1.248,1.13q10.475,10.463,20.937,20.936C2542.4,1697.085,2542.624,1697.409,2543.1,1697.987Z" transform="translate(7.323 2.861)" fill="#fff"/>
  </g>
</svg>
