<svg id="Capa_1" data-name="Capa 1" xmlns="http://www.w3.org/2000/svg" viewBox="0 0 60 60"><defs><style>.cls-1{fill:#ffc700;}</style></defs><path class="cls-1" d="M24.83,21.82a9.05,9.05,0,0,0,10.79,0,8.86,8.86,0,0,1,3.63,6.66c.09,1.41,0,2.82,0,4.23a1.83,1.83,0,0,1-2,1.78H25.06c-.71,0-1.41,0-2.12,0a1.7,1.7,0,0,1-1.75-1.58,40.22,40.22,0,0,1,.22-5.71A8.13,8.13,0,0,1,24.83,21.82Z"/><path class="cls-1" d="M24.78,14.47a5.44,5.44,0,1,1,10.87.15,5.44,5.44,0,1,1-10.87-.15Z"/><path class="cls-1" d="M19,35.17a8.86,8.86,0,0,1,3.64,6.73c.09,1.38.05,2.78,0,4.16a1.79,1.79,0,0,1-1.95,1.79H6.45a1.8,1.8,0,0,1-2-2,40.57,40.57,0,0,1,.23-5.18,8.55,8.55,0,0,1,3.56-5.5A9,9,0,0,0,19,35.17Z"/><path class="cls-1" d="M19.09,28a5.44,5.44,0,1,1-5.34-5.52A5.49,5.49,0,0,1,19.09,28Z"/><path class="cls-1" d="M41,35.2a9,9,0,0,0,10.76,0,9,9,0,0,1,3.77,6.74c.09,1.38.05,2.78,0,4.16a1.81,1.81,0,0,1-2,1.78h-13c-.51,0-1,0-1.51,0a1.7,1.7,0,0,1-1.7-1.58,45.21,45.21,0,0,1,.22-5.71A8.13,8.13,0,0,1,41,35.2Z"/><path class="cls-1" d="M46.24,33.35A5.43,5.43,0,1,1,51.76,28,5.47,5.47,0,0,1,46.24,33.35Z"/></svg>